<svg id="visual" viewBox="0 0 960 300" width="960" height="300" xmlns="http://www.w3.org/2000/svg" xmlns:xlink="http://www.w3.org/1999/xlink" version="1.1"><rect x="0" y="0" width="960" height="300" fill="#0e1212"></rect><path d="M0 57L16 62C32 67 64 77 96 77.3C128 77.7 160 68.3 192 69.7C224 71 256 83 288 82.5C320 82 352 69 384 64.7C416 60.3 448 64.7 480 70.3C512 76 544 83 576 82.3C608 81.7 640 73.3 672 71C704 68.7 736 72.3 768 76C800 79.7 832 83.3 864 84.3C896 85.3 928 83.7 944 82.8L960 82L960 0L944 0C928 0 896 0 864 0C832 0 800 0 768 0C736 0 704 0 672 0C640 0 608 0 576 0C544 0 512 0 480 0C448 0 416 0 384 0C352 0 320 0 288 0C256 0 224 0 192 0C160 0 128 0 96 0C64 0 32 0 16 0L0 0Z" fill="#4091e7"></path><path d="M0 45L16 46C32 47 64 49 96 51.3C128 53.7 160 56.3 192 58.7C224 61 256 63 288 63.8C320 64.7 352 64.3 384 63.2C416 62 448 60 480 56.8C512 53.7 544 49.3 576 52.3C608 55.3 640 65.7 672 68.3C704 71 736 66 768 60.7C800 55.3 832 49.7 864 50.7C896 51.7 928 59.3 944 63.2L960 67L960 0L944 0C928 0 896 0 864 0C832 0 800 0 768 0C736 0 704 0 672 0C640 0 608 0 576 0C544 0 512 0 480 0C448 0 416 0 384 0C352 0 320 0 288 0C256 0 224 0 192 0C160 0 128 0 96 0C64 0 32 0 16 0L0 0Z" fill="#006995"></path><path d="M0 50L16 46.3C32 42.7 64 35.3 96 34.8C128 34.3 160 40.7 192 42.7C224 44.7 256 42.3 288 43.5C320 44.7 352 49.3 384 51.2C416 53 448 52 480 50.3C512 48.7 544 46.3 576 44C608 41.7 640 39.3 672 38.8C704 38.3 736 39.7 768 40.8C800 42 832 43 864 41.8C896 40.7 928 37.3 944 35.7L960 34L960 0L944 0C928 0 896 0 864 0C832 0 800 0 768 0C736 0 704 0 672 0C640 0 608 0 576 0C544 0 512 0 480 0C448 0 416 0 384 0C352 0 320 0 288 0C256 0 224 0 192 0C160 0 128 0 96 0C64 0 32 0 16 0L0 0Z" fill="#0b3d49"></path><path d="M0 33L16 33.2C32 33.3 64 33.7 96 33C128 32.3 160 30.7 192 28.2C224 25.7 256 22.3 288 22.8C320 23.3 352 27.7 384 27.2C416 26.7 448 21.3 480 20.7C512 20 544 24 576 23.7C608 23.3 640 18.7 672 18.8C704 19 736 24 768 24.7C800 25.3 832 21.7 864 19C896 16.3 928 14.7 944 13.8L960 13L960 0L944 0C928 0 896 0 864 0C832 0 800 0 768 0C736 0 704 0 672 0C640 0 608 0 576 0C544 0 512 0 480 0C448 0 416 0 384 0C352 0 320 0 288 0C256 0 224 0 192 0C160 0 128 0 96 0C64 0 32 0 16 0L0 0Z" fill="#0e1212"></path></svg>